<svg width="375" height="300" viewBox="0 0 375 300" fill="none" xmlns="http://www.w3.org/2000/svg">
<rect width="375" height="300" fill="black"/>
<path d="M157.36 227.036L136.055 205.656L132.016 210.801L155.34 229.609L157.36 227.036Z" fill="#292929"/>
<circle cx="157.151" cy="228.785" r="3.59778" transform="rotate(75 157.151 228.785)" fill="#292929"/>
<path d="M158.711 198.416L136.62 187.032L134.752 192.083L157.777 200.941L158.711 198.416Z" fill="#292929"/>
<circle cx="158.989" cy="199.839" r="2.96228" transform="rotate(57.1623 158.989 199.839)" fill="#292929"/>
<path d="M155.611 116.234L107.805 163.588L119.249 172.627L161.333 120.754L155.611 116.234Z" fill="#292929"/>
<circle cx="159.508" cy="116.711" r="8.02083" transform="rotate(-14.8288 159.508 116.711)" fill="#292929"/>
<path d="M43.0531 152.836L93.1398 183.59L98.1589 172.003L45.5626 147.042L43.0531 152.836Z" fill="#292929"/>
<ellipse cx="42.5905" cy="149.429" rx="7.04414" ry="6.88924" transform="rotate(-119.098 42.5905 149.429)" fill="#292929"/>
<path d="M58.4481 227.385L81.7447 204.601L76.1907 200.338L55.6711 225.254L58.4481 227.385Z" fill="#292929"/>
<ellipse cx="56.5537" cy="227.174" rx="3.9054" ry="3.81952" transform="rotate(164.989 56.5537 227.174)" fill="#292929"/>
<path d="M85.5839 97.439L89.6938 129.765L96.4443 127.908L88.9591 96.5107L85.5839 97.439Z" fill="#292929"/>
<ellipse cx="86.8953" cy="96.0557" rx="3.9054" ry="3.81952" transform="rotate(-67.8942 86.8953 96.0557)" fill="#292929"/>
<path d="M170.362 170.908L137.778 170.539L138.69 177.481L170.818 174.379L170.362 170.908Z" fill="#292929"/>
<ellipse cx="171.552" cy="172.397" rx="3.9054" ry="3.81952" transform="rotate(30 171.552 172.397)" fill="#292929"/>
<path d="M30.835 199.658L75.1426 187.189L71.5259 177.754L29.0267 194.94L30.835 199.658Z" fill="#292929"/>
<ellipse cx="28.7107" cy="198.031" rx="5.44096" ry="5.62234" transform="rotate(-165 28.7107 198.031)" fill="#292929"/>
<path d="M48.6733 118.317L77.546 154.164L84.8021 147.131L52.3014 114.801L48.6733 118.317Z" fill="#292929"/>
<ellipse cx="49.3355" cy="115.724" rx="5.44096" ry="5.62234" transform="rotate(-98.1321 49.3355 115.724)" fill="#292929"/>
<path d="M125.641 235.818L114.051 191.272L104.546 194.702L120.888 237.533L125.641 235.818Z" fill="#292929"/>
<ellipse cx="123.971" cy="237.91" rx="5.44096" ry="5.62234" transform="rotate(106.134 123.971 237.91)" fill="#292929"/>
<path d="M117.674 114.177L110.969 135.243L115.71 136.285L120.044 114.698L117.674 114.177Z" fill="#292929"/>
<ellipse cx="118.888" cy="113.755" rx="2.61333" ry="2.70044" transform="rotate(-41.6282 118.888 113.755)" fill="#292929"/>
<path d="M91.2063 248.667L99.1217 203.324L89.05 202.505L86.1704 248.258L91.2063 248.667Z" fill="#292929"/>
<ellipse cx="88.8202" cy="249.879" rx="5.44096" ry="5.62234" transform="rotate(130.62 88.8202 249.879)" fill="#292929"/>
<circle cx="103" cy="175" r="50" fill="#292929"/>
<circle cx="106.5" cy="175.5" r="43.5" fill="#1C1C1C"/>
<circle cx="121" cy="175" r="24" fill="#151515"/>
<path d="M366.527 140.734L359.991 134.175L358.752 135.754L365.907 141.524L366.527 140.734Z" fill="#292929"/>
<circle cx="366.463" cy="141.271" r="1.10376" transform="rotate(75 366.463 141.271)" fill="#292929"/>
<path d="M366.941 131.954L360.164 128.461L359.591 130.011L366.655 132.729L366.941 131.954Z" fill="#292929"/>
<circle cx="367.027" cy="132.391" r="0.908795" transform="rotate(57.1623 367.027 132.391)" fill="#292929"/>
<path d="M365.99 106.742L351.324 121.269L354.835 124.042L367.746 108.128L365.99 106.742Z" fill="#292929"/>
<circle cx="367.186" cy="106.888" r="2.4607" transform="rotate(-14.8288 367.186 106.888)" fill="#292929"/>
<path d="M331.459 117.971L346.825 127.406L348.365 123.851L332.229 116.193L331.459 117.971Z" fill="#292929"/>
<ellipse cx="331.317" cy="116.925" rx="2.16107" ry="2.11354" transform="rotate(-119.098 331.317 116.925)" fill="#292929"/>
<path d="M336.182 140.841L343.329 133.851L341.625 132.544L335.33 140.188L336.182 140.841Z" fill="#292929"/>
<ellipse cx="335.601" cy="140.777" rx="1.19813" ry="1.17179" transform="rotate(164.989 335.601 140.777)" fill="#292929"/>
<path d="M344.507 100.975L345.768 110.893L347.839 110.323L345.542 100.691L344.507 100.975Z" fill="#292929"/>
<ellipse cx="344.909" cy="100.551" rx="1.19813" ry="1.17179" transform="rotate(-67.8942 344.909 100.551)" fill="#292929"/>
<path d="M370.516 123.515L360.519 123.402L360.799 125.531L370.656 124.58L370.516 123.515Z" fill="#292929"/>
<ellipse cx="370.881" cy="123.972" rx="1.19813" ry="1.17179" transform="rotate(30 370.881 123.972)" fill="#292929"/>
<path d="M327.711 132.335L341.304 128.51L340.194 125.615L327.156 130.888L327.711 132.335Z" fill="#292929"/>
<ellipse cx="327.059" cy="131.836" rx="1.66923" ry="1.72487" transform="rotate(-165 327.059 131.836)" fill="#292929"/>
<path d="M333.183 107.381L342.041 118.378L344.267 116.22L334.296 106.302L333.183 107.381Z" fill="#292929"/>
<ellipse cx="333.386" cy="106.585" rx="1.66923" ry="1.72487" transform="rotate(-98.1321 333.386 106.585)" fill="#292929"/>
<path d="M356.796 143.429L353.24 129.763L350.324 130.815L355.338 143.955L356.796 143.429Z" fill="#292929"/>
<ellipse cx="356.284" cy="144.07" rx="1.66923" ry="1.72487" transform="rotate(106.134 356.284 144.07)" fill="#292929"/>
<path d="M354.352 106.11L352.295 112.573L353.749 112.893L355.079 106.27L354.352 106.11Z" fill="#292929"/>
<ellipse cx="354.724" cy="105.981" rx="0.80174" ry="0.828467" transform="rotate(-41.6282 354.724 105.981)" fill="#292929"/>
<path d="M346.232 147.371L348.66 133.46L345.57 133.209L344.687 147.245L346.232 147.371Z" fill="#292929"/>
<ellipse cx="345.5" cy="147.742" rx="1.66923" ry="1.72487" transform="rotate(130.62 345.5 147.742)" fill="#292929"/>
<circle cx="349.85" cy="124.77" r="15.3395" fill="#292929"/>
<circle cx="350.924" cy="124.924" r="13.3453" fill="#1C1C1C"/>
<circle cx="355.372" cy="124.77" r="7.36294" fill="#151515"/>
<path d="M298.189 250.599L285.253 237.618L282.8 240.742L296.962 252.161L298.189 250.599Z" fill="#292929"/>
<circle cx="298.062" cy="251.661" r="2.18452" transform="rotate(75 298.062 251.661)" fill="#292929"/>
<path d="M299.009 233.221L285.596 226.309L284.462 229.377L298.442 234.755L299.009 233.221Z" fill="#292929"/>
<circle cx="299.178" cy="234.086" r="1.79866" transform="rotate(57.1623 299.178 234.086)" fill="#292929"/>
<path d="M297.127 183.322L268.1 212.075L275.048 217.563L300.601 186.066L297.127 183.322Z" fill="#292929"/>
<circle cx="299.493" cy="183.611" r="4.87014" transform="rotate(-14.8288 299.493 183.611)" fill="#292929"/>
<path d="M228.783 205.546L259.195 224.22L262.243 217.184L230.307 202.028L228.783 205.546Z" fill="#292929"/>
<ellipse cx="228.502" cy="203.477" rx="4.27711" ry="4.18306" transform="rotate(-119.098 228.502 203.477)" fill="#292929"/>
<path d="M238.131 250.811L252.276 236.977L248.904 234.389L236.445 249.517L238.131 250.811Z" fill="#292929"/>
<ellipse cx="236.981" cy="250.683" rx="2.37131" ry="2.31916" transform="rotate(164.989 236.981 250.683)" fill="#292929"/>
<path d="M254.607 171.91L257.103 191.537L261.202 190.41L256.657 171.346L254.607 171.91Z" fill="#292929"/>
<ellipse cx="255.404" cy="171.07" rx="2.37131" ry="2.31916" transform="rotate(-67.8942 255.404 171.07)" fill="#292929"/>
<path d="M306.083 216.519L286.299 216.295L286.852 220.51L306.36 218.626L306.083 216.519Z" fill="#292929"/>
<ellipse cx="306.806" cy="217.423" rx="2.37131" ry="2.31916" transform="rotate(30 306.806 217.423)" fill="#292929"/>
<path d="M221.365 233.976L248.267 226.405L246.071 220.676L220.267 231.111L221.365 233.976Z" fill="#292929"/>
<ellipse cx="220.075" cy="232.988" rx="3.30368" ry="3.41381" transform="rotate(-165 220.075 232.988)" fill="#292929"/>
<path d="M232.196 184.587L249.727 206.352L254.133 202.082L234.399 182.452L232.196 184.587Z" fill="#292929"/>
<ellipse cx="232.598" cy="183.012" rx="3.30368" ry="3.41381" transform="rotate(-98.1321 232.598 183.012)" fill="#292929"/>
<path d="M278.929 255.932L271.892 228.884L266.121 230.966L276.044 256.973L278.929 255.932Z" fill="#292929"/>
<ellipse cx="277.916" cy="257.202" rx="3.30368" ry="3.41381" transform="rotate(106.134 277.916 257.202)" fill="#292929"/>
<path d="M274.092 182.073L270.021 194.864L272.899 195.497L275.531 182.389L274.092 182.073Z" fill="#292929"/>
<ellipse cx="274.829" cy="181.816" rx="1.58678" ry="1.63967" transform="rotate(-41.6282 274.829 181.816)" fill="#292929"/>
<path d="M258.021 263.733L262.827 236.202L256.712 235.705L254.963 263.485L258.021 263.733Z" fill="#292929"/>
<ellipse cx="256.572" cy="264.469" rx="3.30368" ry="3.41381" transform="rotate(130.62 256.572 264.469)" fill="#292929"/>
<circle cx="265.182" cy="219.004" r="30.3593" fill="#292929"/>
<circle cx="267.307" cy="219.307" r="26.4126" fill="#1C1C1C"/>
<circle cx="276.112" cy="219.004" r="14.5725" fill="#151515"/>
<g opacity="0.6">
<path d="M252.189 114.599L239.253 101.618L236.8 104.742L250.962 116.161L252.189 114.599Z" fill="#292929"/>
<circle cx="252.062" cy="115.661" r="2.18452" transform="rotate(75 252.062 115.661)" fill="#292929"/>
<path d="M253.009 97.2214L239.596 90.3092L238.462 93.3765L252.442 98.755L253.009 97.2214Z" fill="#292929"/>
<circle cx="253.178" cy="98.0857" r="1.79866" transform="rotate(57.1623 253.178 98.0857)" fill="#292929"/>
<path d="M251.127 47.322L222.1 76.0746L229.048 81.5628L254.601 50.066L251.127 47.322Z" fill="#292929"/>
<circle cx="253.493" cy="47.6114" r="4.87014" transform="rotate(-14.8288 253.493 47.6114)" fill="#292929"/>
<path d="M182.783 69.5461L213.195 88.2197L216.243 81.1838L184.307 66.0281L182.783 69.5461Z" fill="#292929"/>
<ellipse cx="182.502" cy="67.4774" rx="4.27711" ry="4.18306" transform="rotate(-119.098 182.502 67.4774)" fill="#292929"/>
<path d="M192.131 114.811L206.276 100.977L202.904 98.3887L190.445 113.517L192.131 114.811Z" fill="#292929"/>
<ellipse cx="190.981" cy="114.683" rx="2.37131" ry="2.31916" transform="rotate(164.989 190.981 114.683)" fill="#292929"/>
<path d="M208.607 35.9097L211.103 55.5375L215.202 54.4102L210.657 35.346L208.607 35.9097Z" fill="#292929"/>
<ellipse cx="209.404" cy="35.0697" rx="2.37131" ry="2.31916" transform="rotate(-67.8942 209.404 35.0697)" fill="#292929"/>
<path d="M260.083 80.519L240.299 80.295L240.852 84.5098L260.36 82.6264L260.083 80.519Z" fill="#292929"/>
<ellipse cx="260.806" cy="81.4231" rx="2.37131" ry="2.31916" transform="rotate(30 260.806 81.4231)" fill="#292929"/>
<path d="M175.365 97.9758L202.267 90.4049L200.071 84.6757L174.267 95.1112L175.365 97.9758Z" fill="#292929"/>
<ellipse cx="174.075" cy="96.9876" rx="3.30368" ry="3.41381" transform="rotate(-165 174.075 96.9876)" fill="#292929"/>
<path d="M186.196 48.5866L203.727 70.3524L208.133 66.0822L188.399 46.4515L186.196 48.5866Z" fill="#292929"/>
<ellipse cx="186.598" cy="47.0123" rx="3.30368" ry="3.41381" transform="rotate(-98.1321 186.598 47.0123)" fill="#292929"/>
<path d="M232.929 119.932L225.892 92.8842L220.121 94.9664L230.044 120.973L232.929 119.932Z" fill="#292929"/>
<ellipse cx="231.916" cy="121.202" rx="3.30368" ry="3.41381" transform="rotate(106.134 231.916 121.202)" fill="#292929"/>
<path d="M228.092 46.0726L224.021 58.864L226.899 59.4967L229.531 46.389L228.092 46.0726Z" fill="#292929"/>
<ellipse cx="228.829" cy="45.8163" rx="1.58678" ry="1.63967" transform="rotate(-41.6282 228.829 45.8163)" fill="#292929"/>
<path d="M212.021 127.733L216.827 100.202L210.712 99.7046L208.963 127.485L212.021 127.733Z" fill="#292929"/>
<ellipse cx="210.572" cy="128.469" rx="3.30368" ry="3.41381" transform="rotate(130.62 210.572 128.469)" fill="#292929"/>
<circle cx="219.182" cy="83.0037" r="30.3593" fill="#292929"/>
<circle cx="221.307" cy="83.3073" r="26.4126" fill="#1C1C1C"/>
<circle cx="230.112" cy="83.0037" r="14.5725" fill="#151515"/>
</g>
<circle cx="0.5" cy="125.5" r="12.5" fill="#0F1112"/>
<circle cx="108" cy="35" r="9" fill="#0F1112"/>
<circle cx="194.5" cy="151.5" r="5.5" fill="#0F1112"/>
<circle cx="323.5" cy="30.5" r="5.5" fill="#0F1112"/>
<circle cx="340" cy="208" r="4" fill="#0F1112"/>
<circle cx="360" cy="269" r="7" fill="#0F1112"/>
<circle cx="305" cy="273" r="4" fill="#0F1112"/>
<circle cx="149.5" cy="263.5" r="5.5" fill="#0F1112"/>
</svg>
